<?xml version="1.0" standalone="no"?>
<!DOCTYPE svg PUBLIC "-//W3C//DTD SVG 20010904//EN"
 "http://www.w3.org/TR/2001/REC-SVG-20010904/DTD/svg10.dtd">
<svg version="1.0" xmlns="http://www.w3.org/2000/svg"
 width="1280.000000pt" height="640.000000pt" viewBox="0 0 1280.000000 640.000000"
 preserveAspectRatio="xMidYMid meet">
<metadata>
Created by potrace 1.15, written by Peter Selinger 2001-2017
</metadata>
<g transform="translate(0.000000,640.000000) scale(0.100000,-0.100000)"
fill="#000000" stroke="none">
<path d="M2123 4381 c-28 -16 -136 -87 -240 -159 -566 -391 -830 -534 -1460
-791 -255 -103 -316 -133 -335 -160 -8 -11 -26 -23 -41 -26 -42 -11 -53 -31
-31 -56 27 -30 83 -57 382 -180 598 -248 975 -458 1522 -848 220 -157 301
-197 316 -156 8 20 -11 73 -50 138 l-33 55 35 -15 c34 -14 37 -14 54 7 26 32
23 65 -32 340 -65 326 -101 600 -80 600 5 0 54 -7 108 -15 434 -64 1496 -100
3732 -125 2218 -25 3439 -32 4315 -27 1391 10 1873 33 2290 113 153 29 201 43
216 60 16 20 -43 32 -251 49 -260 22 -622 32 -1655 50 -3240 54 -6854 79
-8070 56 -341 -6 -637 -14 -657 -18 l-38 -6 0 139 c0 152 9 272 41 524 12 91
22 208 23 260 2 64 8 105 19 126 8 17 17 44 19 60 3 25 -1 29 -22 32 -14 1
-48 -11 -77 -27z m-253 -525 c-140 -362 -156 -780 -44 -1131 14 -44 47 -127
74 -183 l50 -104 -82 77 c-350 329 -876 602 -1343 696 l-60 12 112 23 c224 45
440 122 673 240 223 113 398 229 575 383 39 34 71 61 72 61 1 0 -12 -33 -27
-74z"/>
</g>
</svg>
