<?xml version="1.0" encoding="UTF-8" standalone="no"?>
<svg
   xmlns:dc="http://purl.org/dc/elements/1.1/"
   xmlns:cc="http://creativecommons.org/ns#"
   xmlns:rdf="http://www.w3.org/1999/02/22-rdf-syntax-ns#"
   xmlns:svg="http://www.w3.org/2000/svg"
   xmlns="http://www.w3.org/2000/svg"
   xmlns:sodipodi="http://sodipodi.sourceforge.net/DTD/sodipodi-0.dtd"
   xmlns:inkscape="http://www.inkscape.org/namespaces/inkscape"
   viewBox="0 0 408.83188 321.73636"
   version="1.1"
   id="svg3684"
   sodipodi:docname="bird-157260.svg"
   inkscape:version="0.92.1 r15371">
  <metadata
     id="metadata3690">
    <rdf:RDF>
      <cc:Work
         rdf:about="">
        <dc:format>image/svg+xml</dc:format>
        <dc:type
           rdf:resource="http://purl.org/dc/dcmitype/StillImage" />
      </cc:Work>
    </rdf:RDF>
  </metadata>
  <defs
     id="defs3688" />
  <sodipodi:namedview
     pagecolor="#ffffff"
     bordercolor="#666666"
     borderopacity="1"
     objecttolerance="10"
     gridtolerance="10"
     guidetolerance="10"
     inkscape:pageopacity="0"
     inkscape:pageshadow="2"
     inkscape:window-width="1363"
     inkscape:window-height="792"
     id="namedview3686"
     showgrid="false"
     inkscape:zoom="1.9208274"
     inkscape:cx="292.65916"
     inkscape:cy="181.69254"
     inkscape:window-x="104"
     inkscape:window-y="0"
     inkscape:window-maximized="0"
     inkscape:current-layer="svg3684" />
  <g
     transform="translate(-232.73 -60.065)"
     id="g3682"
     style="fill:#333333;stroke:none">
    <path
       d="m275.92 60.566c-0.48984-0.00256-0.96472 0.01728-1.4375 0.03125-19.331 0.57127-24.462 14.805-23.344 29.938-8.183 7.0753-21.2 20.724-17.156 23.719 1.2582 0.93187 8.928-4.1509 16.438-4.9688 18.036-1.9643 18.336 14.963 15.531 26.062s-1.3261 13.114-0.21875 21.188c1.1314 8.2488 10.328 78.98 38.969 103.28 32.934 27.943 30.094 63.109 29.469 64.281-15.844 0.87755-37.875 3.0654-48.79 6.3017-3.6776 1.0904-8.5271-0.44215-12.116 0.13578 0 0-6.0897-1.5726-8.375-1.25-2.4192 0.34159-5.1875 3.4062-5.1875 3.4062s5.1241 0.68545 6.5938 1.5938c1.3144 0.81238 1.9688 3.4062 1.9688 3.4062l-2.125 3.75 7.125-0.375s0.64627 3.1084 1.4764 3.0574c14.357-0.42842 28.517-2.7684 42.274-1.6199 0 0 3.9359 1.0727 11.969 13.75 0.58482 0.92296 3.5625 0.71876 3.5625 0.71875l2.875 3.5625 0.71875-3.5625s3.4209-0.04979 2.8438-0.71875c-5.031-5.8309-19.299-18.545-17.125-20.719 0 0 3.4176-0.19945 10 0 17.679 0.53571 25.522 1.2634 35.344-7.8438 9.4423-8.7556 8.8984-19.773 23.219-17.875 14.821 1.9643 43.737 23.763 46.594 30.906 1.9717 4.9293 3.6173 15.805 0.75 23.188-1.2876 3.3153-3.6692 5.5878-6.8125 5.7188-8.5714 0.35714-20.961-0.91595-30.531 0.90625-3.1294 0.59583-7.875 7.1562-7.875 7.1562l22.156-0.71875-3.5625 3.5625s17.162 1.7266 22.656 0c6.25-1.9643 9.4687-5 9.4688-5l7.875 2.1562s-0.20734-9.1034 0.71875-11.438c0.89978-2.2678 11.406 4.2812 11.406 4.2812l0.71875-4.2812 3.5625 2.125v-5.6875l-17.844-6.4375 0.71875-41.438s9.2087-9.3482 17.125-9.2812c7.7377 0.06543 24.711 9.3628 35.438 7.625 8.394-1.3598 24.406-14.406 24.406-14.406s47.312 5.7188 52.312 5.7188 21.437 6.7768 26.438 6.0625 36.955 2.3304 34.812 0.1875c-1.049-1.049-5.1066-11.13-9.5625-11.656-14.055-1.6604-0.03307-2.9383-0.59375-3.7812-3.7302-5.6075-10.397-12.344-13.25-14.562-5.1116-3.9757-34.579-18.648-60.312-30.062-7.1449-3.1692-12.961-8.1245-15.562-9.7812-4.3067-3.5779-9.878-2.4692-15.281-6.25-18.251-12.771-51.274-31.761-63.125-39.094-17.143-13.929-28.746-26.777-38.031-31.062-13.052-6.0238-52.843-22.918-76.062-39.656-15.123-10.902-28.676-51.613-45-57.844-11.616-4.4339-20.902-6.3678-28.25-6.4062zm-10.062 19.969c2.415-1e-5 4.375 1.96 4.375 4.375 0 2.415-1.96 4.375-4.375 4.375s-4.375-1.96-4.375-4.375 1.96-4.375 4.375-4.375zm-0.25 1.9688c-1.3307 0-2.4375 1.0755-2.4375 2.4062s1.1068 2.4063 2.4375 2.4062 2.4062-1.0755 2.4062-2.4062-1.0755-2.4063-2.4062-2.4062z"
       fill-rule="evenodd"
       stroke="#000"
       id="path3680"
       style="fill:#333333;stroke:none" />
  </g>
</svg>
